# xmcd
#
# Track frame offsets:
#	150
#	18990
#	31294
#	45135
#	65636
#	84741
#	98090
#	112159
#	125743
#	144529
#
# Disc length: 2207 seconds
#
# Revision: 1
# Processed by: cddbd v1.5.2PL0 Copyright (c) Steve Scherf et al.
# Submitted via: audiograbber 1.83.01
#
DISCID=85089d0a
DTITLE=Porter - This Red Mountain
DYEAR=1900
DGENRE=Country
TTITLE0=Hardest Healin'
TTITLE1=Natural Disaster
TTITLE2=Don't Let Me Go
TTITLE3=Angel
TTITLE4=Harder Stuff
TTITLE5=Reach For The Sky
TTITLE6=Between Us
TTITLE7=This Red Mountain
TTITLE8=Goodbye Maria
TTITLE9=East Of Us
EXTD=
EXTT0=
EXTT1=
EXTT2=
EXTT3=
EXTT4=
EXTT5=
EXTT6=
EXTT7=
EXTT8=
EXTT9=
PLAYORDER=
